<svg width="200" height="200" xmlns="http://www.w3.org/2000/svg">

 <g>
  <title>Layer 1</title>
  <path id="svg_2" d="m100,199c-54.69613,0 -99,-44.30387 -99,-99c0,-54.69613 44.30387,-99 99,-99c54.69613,0 99,44.30387 99,99c0,54.69613 -44.30387,99 -99,99z" opacity="undefined" stroke-width="0" stroke="#000" fill="#ec8a3b"/>
  <g stroke="null">
   <path stroke="null" fill="#ffffff" d="m63.87767,55.28813c14.21669,10.673 29.50836,32.31339 35.12269,43.92688c5.61476,-11.61264 20.90557,-33.2541 35.12269,-43.92688c10.25802,-7.70121 26.87865,-13.65996 26.87865,5.30111c0,3.78679 -2.17112,31.81097 -3.4445,36.36058c-4.42625,15.81761 -20.55537,19.85197 -34.90248,17.41019c25.07847,4.26826 31.4582,18.40627 17.68043,32.54429c-26.1667,26.85086 -37.60916,-6.73698 -40.54246,-15.34341c-0.53749,-1.57776 -0.789,-2.31586 -0.7927,-1.68823c-0.00372,-0.62765 -0.25521,0.11047 -0.7927,1.68823c-2.93202,8.60643 -14.37426,42.19512 -40.54246,15.34341c-13.77798,-14.13802 -7.39847,-28.27689 17.68043,-32.54429c-14.34754,2.44178 -30.47687,-1.5926 -34.90248,-17.41019c-1.27342,-4.55004 -3.4445,-32.57422 -3.4445,-36.36058c0,-18.96108 16.62106,-13.00232 26.87865,-5.30111l0.00073,0z"/>
  </g>
 </g>
</svg>