<svg width="42" height="45" viewBox="0 0 42 45" fill="none" xmlns="http://www.w3.org/2000/svg">
<path d="M30.8064 28.2425C30.7376 28.0476 30.7964 27.831 30.9505 27.6932C34.1455 24.8383 36.1665 20.6955 36.1665 16.0831C36.1665 7.49042 29.1761 0.5 20.5834 0.5C11.9906 0.5 5.00014 7.49042 5.00014 16.0831C5.00014 20.6956 7.01948 24.8367 10.2145 27.6932C10.3685 27.831 10.4272 28.0475 10.3585 28.2423L5.05153 43.2785C4.92873 43.6287 5.02953 44.0228 5.31003 44.2703C5.48233 44.4188 5.69872 44.4976 5.91683 44.4976C6.05613 44.4976 6.19732 44.4646 6.32752 44.4004L12.8502 41.1391C13.0247 41.0518 13.234 41.074 13.3863 41.1959L17.2614 44.2977C17.5107 44.4957 17.8389 44.5489 18.1396 44.4462C18.4384 44.3417 18.6603 44.0905 18.7299 43.7807L19.6585 39.6041C19.764 39.1294 20.4163 39.0694 20.6066 39.5169L22.4881 43.9402C22.5999 44.2042 22.8291 44.4004 23.1078 44.47C23.381 44.5452 23.6798 44.4755 23.9053 44.2977L27.7804 41.1959C27.9327 41.074 28.142 41.0518 28.3165 41.1391L34.8392 44.4004C34.9694 44.4646 35.1105 44.4976 35.2499 44.4976C35.4681 44.4976 35.6844 44.4188 35.8549 44.2684C36.1354 44.0209 36.2381 43.6267 36.1134 43.2766L30.8064 28.2425ZM6.83351 16.0813C6.83351 8.49872 13.0007 2.33148 20.5834 2.33148C28.166 2.33148 34.3332 8.49872 34.3332 16.0813C34.3332 23.6639 28.166 29.8312 20.5834 29.8312C13.0007 29.8312 6.83351 23.6639 6.83351 16.0813ZM17.4317 41.1645C17.3514 41.5257 16.9202 41.6776 16.6313 41.4465L13.822 39.1994C13.5415 38.9757 13.1584 38.9372 12.8394 39.0949L8.64254 41.1926C8.24032 41.3936 7.79784 41.0029 7.94751 40.5789L11.7937 29.6821C11.902 29.3752 12.27 29.2522 12.5487 29.4204C13.8655 30.2157 15.3107 30.8174 16.843 31.1965C16.9984 31.2349 17.1279 31.3428 17.1905 31.4901L18.6982 35.035C18.739 35.131 18.7488 35.2374 18.7262 35.3392L17.4317 41.1645ZM28.3254 39.0949C28.0064 38.9372 27.6232 38.9757 27.3427 39.1994L24.218 41.7007C23.9596 41.9076 23.5751 41.8108 23.4455 41.5062L19.5524 32.3602C19.4047 32.0132 19.6797 31.6345 20.0564 31.6508C20.2311 31.6583 20.4066 31.6627 20.5833 31.6627C23.5223 31.6627 26.2704 30.8406 28.6182 29.4204C28.8966 29.252 29.2644 29.3751 29.3727 29.6819L33.2175 40.5777C33.3671 41.0016 32.9248 41.3923 32.5226 41.1914L28.3254 39.0949Z" fill="#4E8A42"/>
<path fill-rule="evenodd" clip-rule="evenodd" d="M13.4983 23.2486C13.4846 23.2385 13.4709 23.2285 13.459 23.2166C13.458 23.2155 13.4573 23.2142 13.4564 23.2127C13.4503 23.2015 13.4378 23.1955 13.4289 23.1865C11.6146 21.3616 10.4927 18.8501 10.4927 16.0814C10.4927 10.5228 15.0154 5.99817 20.5759 5.99817C26.1363 5.99817 30.6591 10.5227 30.6591 16.0814C30.6591 18.8543 29.5337 21.3693 27.7145 23.1948C27.711 23.1983 27.7079 23.2022 27.706 23.2067C27.7047 23.21 27.7034 23.2133 27.7001 23.2166C27.6882 23.2286 27.6744 23.2387 27.6606 23.2488C27.6469 23.2589 27.6332 23.2689 27.6213 23.2808C27.1887 23.7043 26.7212 24.093 26.217 24.434C26.1821 24.4579 26.1462 24.4791 26.1103 24.5002C26.0802 24.518 26.0501 24.5357 26.0208 24.555C25.5368 24.8667 25.0272 25.1453 24.49 25.3727C24.4527 25.3887 24.4141 25.4022 24.3753 25.4157C24.3475 25.4254 24.3196 25.4352 24.292 25.446C23.7456 25.6641 23.1773 25.842 22.5888 25.9611C22.5711 25.9649 22.5524 25.9672 22.5334 25.9695C22.5152 25.9718 22.4968 25.9741 22.4789 25.9776C21.8629 26.095 21.2286 26.1628 20.5796 26.1628C19.9306 26.1628 19.2963 26.0949 18.6803 25.9776C18.6619 25.974 18.6436 25.9717 18.6253 25.9694C18.607 25.9671 18.5886 25.9648 18.5703 25.9611C17.9818 25.842 17.4134 25.6641 16.8671 25.446C16.839 25.4351 16.8109 25.4251 16.7828 25.4152C16.7449 25.4018 16.707 25.3884 16.6691 25.3727C16.132 25.1472 15.6241 24.8685 15.1383 24.555C15.109 24.5357 15.0789 24.518 15.0488 24.5002C15.0129 24.4791 14.977 24.4579 14.9421 24.434C14.4398 24.093 13.9705 23.7043 13.5378 23.2808C13.5259 23.2688 13.5121 23.2587 13.4983 23.2486ZM25.4831 22.676C25.5011 22.6625 25.519 22.649 25.5369 22.6355C25.6818 22.5255 25.8211 22.4081 25.9604 22.289C26.5539 21.7526 26.8401 21.4426 27.2713 20.8736C28.2448 19.5188 28.8333 17.8725 28.8333 16.0814C28.8333 11.5329 25.1318 7.83145 20.5833 7.83145C16.0349 7.83145 12.3334 11.5329 12.3334 16.0814C12.3334 17.8725 12.9219 19.5206 13.8954 20.8736C14.3796 21.4638 14.6659 21.7752 15.2099 22.289C15.3474 22.4082 15.4849 22.5255 15.6297 22.6355C15.6468 22.6484 15.6639 22.6613 15.681 22.6742C15.8562 22.8063 16.031 22.9381 16.2164 23.0517C16.3354 23.1258 16.4602 23.1903 16.5851 23.2549C16.6334 23.2798 16.6817 23.3048 16.7297 23.3304C19.113 24.5532 22.0536 24.5532 24.4369 23.3304C24.4849 23.3048 24.5332 23.2798 24.5815 23.2549C24.7064 23.1903 24.8312 23.1258 24.9502 23.0517C25.1348 22.9386 25.3088 22.8074 25.4831 22.676Z" fill="#4E8A42"/>
</svg>
