<svg width="25" height="25" viewBox="0 0 25 25" fill="none" xmlns="http://www.w3.org/2000/svg">
<path d="M8.66697 2.53333H5.90697C4.18947 2.53333 3.33008 2.53333 2.67409 2.86758C2.09705 3.16159 1.62825 3.63039 1.33425 4.20743C1 4.86342 1 5.7228 1 7.44031V19.0936C1 20.8111 1 21.6695 1.33425 22.3254C1.62825 22.9024 2.09705 23.3721 2.67409 23.666C3.32944 24 4.18778 24 5.90193 24H17.5648C19.2789 24 20.136 24 20.7913 23.666C21.3683 23.3721 21.8388 22.902 22.1327 22.325C22.4667 21.6696 22.4667 20.8122 22.4667 19.0981V16.3333M24 8.66667V1M24 1H16.3333M24 1L13.2667 11.7333" stroke="white" stroke-width="2" stroke-linecap="round" stroke-linejoin="round"/>
</svg>
