<svg width="71" height="71" viewBox="0 0 71 71" fill="none" xmlns="http://www.w3.org/2000/svg">
<rect width="71" height="71" rx="35.5" fill="#6A6A6A"/>
<path fill-rule="evenodd" clip-rule="evenodd" d="M35.5 16C46.2698 16 55 24.9504 55 35.9932C55 44.8248 49.4191 52.3167 41.6756 54.9629C40.687 55.1598 40.336 54.5354 40.336 54.0031C40.336 53.344 40.3594 51.1913 40.3594 48.5159C40.3594 46.6517 39.7354 45.435 39.0354 44.8149C43.378 44.3196 47.941 42.6288 47.941 34.9497C47.941 32.7657 47.1844 30.9834 45.9325 29.5834C46.1353 29.0783 46.8041 27.0447 45.7414 24.2913C45.7414 24.2913 44.1073 23.7556 40.3847 26.3413C38.8267 25.8986 37.1575 25.6759 35.5 25.6681C33.8425 25.6759 32.1753 25.8986 30.6192 26.3413C26.8927 23.7556 25.2547 24.2913 25.2547 24.2913C24.1959 27.0447 24.8647 29.0783 25.0656 29.5834C23.8195 30.9834 23.0571 32.7657 23.0571 34.9497C23.0571 42.6093 27.6103 44.326 31.9413 44.8311C31.3836 45.3303 30.8785 46.2109 30.703 47.5037C29.5915 48.0146 26.7679 48.8988 25.0285 45.8432C25.0285 45.8432 23.997 43.9222 22.0392 43.7818C22.0392 43.7818 20.1379 43.7565 21.9065 44.9967C21.9065 44.9967 23.1838 45.611 24.071 47.9217C24.071 47.9217 25.2157 51.4902 30.6406 50.2812C30.6504 51.9523 30.6679 53.5273 30.6679 54.0031C30.6679 54.5316 30.3091 55.15 29.336 54.9648C21.5867 52.3225 16 44.8267 16 35.9932C16 24.9504 24.7321 16 35.5 16Z" fill="white"/>
</svg>
