<svg width="38" height="41" viewBox="0 0 38 41" fill="none" xmlns="http://www.w3.org/2000/svg">
<path d="M20.5969 40C19.5922 39.9994 18.589 39.9228 17.5955 39.7708C13.2447 39.0728 9.25078 36.9133 6.25383 33.6384C3.25688 30.3634 1.43039 26.1627 1.06704 21.7093C0.703703 17.2558 1.82455 12.8076 4.24997 9.07736C6.67539 5.34713 10.265 2.55088 14.4434 1.13671C14.8906 0.982499 15.3714 0.958211 15.8314 1.06659C16.2914 1.17498 16.7124 1.41171 17.0468 1.75006C17.4092 2.10893 17.6663 2.56267 17.7898 3.06089C17.9132 3.55911 17.8981 4.08229 17.7461 4.57231C17.1722 6.46538 16.9155 8.44272 16.9866 10.422C17.1487 13.5264 18.0987 16.5356 19.7446 19.1578C21.3904 21.7801 23.6762 23.9265 26.3803 25.3889C28.816 26.7905 31.5646 27.5367 34.3648 27.5563C34.8524 27.5632 35.3289 27.7053 35.7426 27.9672C36.1563 28.2291 36.4915 28.6009 36.7118 29.0423C36.9321 29.4837 37.0291 29.9778 36.9924 30.4711C36.9557 30.9645 36.7866 31.4382 36.5034 31.841C34.6718 34.3747 32.2767 36.4341 29.5127 37.8518C26.7488 39.2695 23.6941 40.0055 20.5969 40ZM15.261 3.1841C15.2135 3.18462 15.1663 3.19272 15.1212 3.20811C12.5055 4.08869 10.1318 5.58327 8.19297 7.57024C6.25419 9.55722 4.80517 11.9805 3.96383 14.6428C3.12249 17.3052 2.91258 20.1314 3.35119 22.8916C3.7898 25.6518 4.86453 28.2679 6.48794 30.5272C8.11136 32.7864 10.2376 34.625 12.6936 35.8932C15.1497 37.1615 17.8662 37.8236 20.6221 37.8257C23.378 37.8278 26.0955 37.1698 28.5534 35.9054C31.0114 34.6409 33.1404 32.8056 34.7671 30.5488C34.8182 30.4744 34.8479 30.387 34.8529 30.2964C34.8578 30.2058 34.8378 30.1156 34.7951 30.0359C34.7562 29.9491 34.694 29.8752 34.6156 29.8227C34.5372 29.7702 34.4458 29.7412 34.3519 29.739C31.1928 29.7189 28.0912 28.8805 25.3411 27.3031C22.3114 25.6568 19.7522 23.2445 17.9115 20.2999C16.0708 17.3553 15.0111 13.9784 14.835 10.4962C14.7586 8.27427 15.0495 6.05504 15.6957 3.93059C15.7286 3.82296 15.7321 3.7083 15.706 3.59878C15.6799 3.48926 15.625 3.38896 15.5472 3.30852C15.5103 3.26923 15.4659 3.23796 15.4167 3.21657C15.3675 3.19519 15.3146 3.18414 15.261 3.1841Z" fill="white" stroke="white"/>
</svg>
