<svg width="45" height="43" viewBox="0 0 45 43" fill="none" xmlns="http://www.w3.org/2000/svg">
<path d="M22.5 14.3372C17.8154 14.3372 13.9826 18.1046 13.9826 22.7093C13.9826 27.3139 17.8154 31.0813 22.5 31.0813C27.1845 31.0813 31.0173 27.3139 31.0173 22.7093C31.0173 18.1046 27.1845 14.3372 22.5 14.3372ZM22.5 28.2906C19.377 28.2906 16.8218 25.779 16.8218 22.7093C16.8218 19.6395 19.377 17.1279 22.5 17.1279C25.623 17.1279 28.1782 19.6395 28.1782 22.7093C28.1782 25.779 25.623 28.2906 22.5 28.2906Z" fill="#9E70C2"/>
<path d="M22.5 34.1046C17.2121 34.1046 12.1372 36.2674 8.51735 40.0697C7.98939 40.6271 8.02672 41.5172 8.58832 42.0407C9.15257 42.5666 10.0453 42.5483 10.5757 41.9883C13.6987 38.7093 17.9219 36.8953 22.5 36.8953C27.0781 36.8953 31.3013 38.7093 34.4243 41.9883C34.9547 42.5483 35.8474 42.5666 36.4117 42.0407C36.9733 41.5172 37.0106 40.6271 36.4826 40.0697C32.8628 36.3023 27.7878 34.1046 22.5 34.1046Z" fill="#9E70C2"/>
<path d="M33.2793 15.276C32.5392 15.2698 31.9637 15.8892 31.9637 16.6293C31.9637 17.432 32.6373 18.0675 33.4378 18.128C36.4088 18.3527 39.7307 19.5952 41.9004 21.2526C42.514 21.7213 43.3954 21.7513 43.9602 21.2248C44.5333 20.6906 44.5658 19.787 43.9758 19.2715C41.4129 17.0322 37.719 15.3137 33.2793 15.276Z" fill="#9E70C2"/>
<path d="M40.9897 6.66279C40.9897 3 37.9377 0 34.2113 0C30.485 0 27.433 3 27.433 6.66279C27.433 10.3256 30.485 13.3256 34.2113 13.3256C37.9377 13.3256 40.9897 10.3256 40.9897 6.66279ZM30.2721 6.66279C30.2721 4.53488 32.0465 2.7907 34.2113 2.7907C36.3762 2.7907 38.1506 4.53488 38.1506 6.66279C38.1506 8.7907 36.3762 10.5349 34.2113 10.5349C32.0465 10.5349 30.2721 8.7907 30.2721 6.66279Z" fill="#9E70C2"/>
<path d="M10.7886 17.0465C10.7886 16.2758 10.1625 15.6444 9.39521 15.7162C6.2953 16.0063 3.34864 17.2562 1.0218 19.2763C0.432432 19.7879 0.464858 20.6891 1.03578 21.2212C1.60155 21.7486 2.48209 21.7125 3.07489 21.2157C4.86878 19.7124 7.05449 18.7837 9.39606 18.5197C10.1618 18.4334 10.7886 17.8171 10.7886 17.0465Z" fill="#9E70C2"/>
<path d="M17.567 6.66279C17.567 3 14.515 0 10.7886 0C7.0623 0 4.01025 3 4.01025 6.66279C4.01025 10.3256 7.0623 13.3256 10.7886 13.3256C14.515 13.3256 17.567 10.3256 17.567 6.66279ZM10.7886 10.5349C8.62382 10.5349 6.84937 8.7907 6.84937 6.66279C6.84937 4.53488 8.62382 2.7907 10.7886 2.7907C12.9535 2.7907 14.7279 4.53488 14.7279 6.66279C14.7279 8.7907 12.9535 10.5349 10.7886 10.5349Z" fill="#9E70C2"/>
</svg>
