<svg width="44" height="43" viewBox="0 0 44 43" fill="none" xmlns="http://www.w3.org/2000/svg">
<path d="M20 2C11.8899 2.01424 7.643 2.20838 4.92894 4.85467C2 7.71045 2 12.3068 2 21.4994C2 30.6922 2 35.2885 4.92894 38.1443C7.85786 41 12.5719 41 22 41C31.428 41 36.1422 41 39.071 38.1443C41.7852 35.4979 41.9842 31.3572 41.9988 23.4495" stroke="#527A92" stroke-width="2.8" stroke-linecap="round"/>
<path d="M24 19.5505L42 2M42 2H31.3124M42 2V12.4206M40 3.95006L22 21.5006M22 21.5006H30M22 21.5006V13.7004" stroke="#527A92" stroke-width="2.8" stroke-linecap="round" stroke-linejoin="round"/>
</svg>
