<svg width="23" height="24" viewBox="0 0 23 24" fill="none" xmlns="http://www.w3.org/2000/svg">
<path d="M22.4664 22.9672C22.1227 23.3085 21.658 23.5 21.1737 23.5C20.6893 23.5 20.2246 23.3085 19.8809 22.9672L14.2793 17.3659C12.3783 18.6254 10.0772 19.134 7.82245 18.7928C5.56767 18.4517 3.52 17.2852 2.07671 15.5197C0.633426 13.7542 -0.102567 11.5155 0.0115286 9.23797C0.125624 6.96047 1.08167 4.80654 2.69419 3.19409C4.3067 1.58163 6.4607 0.62562 8.73828 0.511528C11.0159 0.397437 13.2546 1.1334 15.0202 2.57664C16.7858 4.01987 17.9523 6.06747 18.2935 8.32216C18.6346 10.5769 18.1261 12.8779 16.8665 14.7788L22.4664 20.3802C22.8082 20.724 23 21.189 23 21.6737C23 22.1585 22.8082 22.6235 22.4664 22.9672ZM11.971 16.5277C13.678 15.8378 15.0667 14.5369 15.8663 12.8786C16.666 11.2203 16.8192 9.32363 16.296 7.55851C15.7729 5.79339 14.611 4.28643 13.0369 3.33158C11.4628 2.37673 9.58949 2.04247 7.7823 2.39401C5.9751 2.74554 4.36367 3.75766 3.26233 5.23293C2.16099 6.7082 1.64873 8.54082 1.82547 10.3733C2.0022 12.2058 2.85527 13.9068 4.21825 15.1444C5.58124 16.382 7.3564 17.0675 9.19747 17.0672C10.1477 17.0687 11.0908 16.8855 11.971 16.5277Z" fill="#717171"/>
</svg>
