<svg width="40" height="40" viewBox="0 0 40 40" fill="none" xmlns="http://www.w3.org/2000/svg">
<path d="M8.4 25.275C8.4 26.1057 8.15368 26.9177 7.69217 27.6085C7.23067 28.299 6.57472 28.8375 5.80727 29.1553C5.03982 29.4732 4.19535 29.5562 3.38063 29.3942C2.5659 29.2323 1.81753 28.8323 1.23015 28.2448C0.642775 27.6575 0.24275 26.909 0.0806999 26.0945C-0.0813501 25.2798 0.00182524 24.4353 0.3197 23.6678C0.6376 22.9002 1.17593 22.2443 1.8666 21.7828C2.5573 21.3213 3.36932 21.075 4.2 21.075H8.4V25.275ZM10.525 25.275C10.525 24.161 10.9675 23.0928 11.7551 22.3053C12.5428 21.5175 13.6111 21.075 14.725 21.075C15.839 21.075 16.9072 21.5175 17.6947 22.3053C18.4825 23.0928 18.925 24.161 18.925 25.275V35.8C18.925 36.914 18.4825 37.9823 17.6947 38.7698C16.9072 39.5575 15.839 40 14.725 40C13.6111 40 12.5428 39.5575 11.7551 38.7698C10.9675 37.9823 10.525 36.914 10.525 35.8V25.275ZM14.725 8.4C13.8943 8.4 13.0823 8.15368 12.3916 7.69217C11.7009 7.23067 11.1626 6.57472 10.8447 5.80727C10.5268 5.03982 10.4437 4.19535 10.6057 3.38063C10.7677 2.5659 11.1678 1.81753 11.7551 1.23015C12.3425 0.642775 13.0909 0.24275 13.9056 0.0806999C14.7204 -0.0813501 15.5647 0.00182524 16.3322 0.3197C17.0998 0.6376 17.7557 1.17593 18.2172 1.8666C18.6787 2.5573 18.925 3.36932 18.925 4.2V8.4H14.725ZM14.725 10.525C15.839 10.525 16.9072 10.9675 17.6947 11.7551C18.4825 12.5428 18.925 13.6111 18.925 14.725C18.925 15.839 18.4825 16.9072 17.6947 17.6947C16.9072 18.4825 15.839 18.925 14.725 18.925H4.2C3.0861 18.925 2.0178 18.4825 1.23015 17.6947C0.4425 16.9072 0 15.839 0 14.725C0 13.6111 0.4425 12.5428 1.23015 11.7551C2.0178 10.9675 3.0861 10.525 4.2 10.525H14.725ZM31.6 14.725C31.6 13.8943 31.8462 13.0823 32.3077 12.3916C32.7692 11.7009 33.4252 11.1626 34.1927 10.8447C34.9602 10.5268 35.8048 10.4437 36.6195 10.6057C37.434 10.7677 38.1825 11.1678 38.7698 11.7551C39.3573 12.3425 39.7572 13.0909 39.9192 13.9056C40.0812 14.7204 39.9983 15.5647 39.6803 16.3322C39.3625 17.0998 38.824 17.7557 38.1335 18.2172C37.4428 18.6787 36.6307 18.925 35.8 18.925H31.6V14.725ZM29.475 14.725C29.475 15.839 29.0325 16.9072 28.2448 17.6947C27.4573 18.4825 26.389 18.925 25.275 18.925C24.161 18.925 23.0928 18.4825 22.3053 17.6947C21.5175 16.9072 21.075 15.839 21.075 14.725V4.2C21.075 3.0861 21.5175 2.0178 22.3053 1.23015C23.0928 0.4425 24.161 0 25.275 0C26.389 0 27.4573 0.4425 28.2448 1.23015C29.0325 2.0178 29.475 3.0861 29.475 4.2V14.725ZM25.275 31.6C26.1057 31.6 26.9177 31.8462 27.6085 32.3077C28.299 32.7692 28.8375 33.4252 29.1553 34.1927C29.4732 34.9602 29.5562 35.8048 29.3942 36.6195C29.2323 37.434 28.8323 38.1825 28.2448 38.7698C27.6575 39.3573 26.909 39.7572 26.0945 39.9192C25.2798 40.0812 24.4353 39.9983 23.6678 39.6803C22.9002 39.3625 22.2443 38.824 21.7828 38.1335C21.3213 37.4428 21.075 36.6307 21.075 35.8V31.6H25.275ZM25.275 29.475C24.161 29.475 23.0928 29.0325 22.3053 28.2448C21.5175 27.4573 21.075 26.389 21.075 25.275C21.075 24.161 21.5175 23.0928 22.3053 22.3053C23.0928 21.5175 24.161 21.075 25.275 21.075H35.8C36.914 21.075 37.9823 21.5175 38.7698 22.3053C39.5575 23.0928 40 24.161 40 25.275C40 26.389 39.5575 27.4573 38.7698 28.2448C37.9823 29.0325 36.914 29.475 35.8 29.475H25.275Z" fill="#536199"/>
</svg>
