<svg width="41" height="43" viewBox="0 0 41 43" fill="none" xmlns="http://www.w3.org/2000/svg">
<path d="M34.994 14.1674C34.8387 18.1027 33.3148 21.8687 30.674 24.844C29.892 25.6954 29.2954 26.6933 28.9208 27.7771V30.8188C28.9208 31.5578 28.6203 32.2666 28.0855 32.7891C27.5506 33.3117 26.8252 33.6053 26.0688 33.6053H14.9312C14.1748 33.6053 13.4494 33.3117 12.9145 32.7891C12.3797 32.2666 12.0792 31.5578 12.0792 30.8188V27.7771C11.7044 26.6934 11.1079 25.6955 10.326 24.844C7.68295 21.8695 6.157 18.1035 6 14.1674C5.99991 10.8978 7.15733 7.72884 9.27595 5.19794C11.3946 2.66704 14.344 0.930025 17.6239 0.281502C20.9039 -0.367022 24.3124 0.11287 27.2716 1.63979C30.2307 3.1667 32.5581 5.64664 33.8592 8.659C34.6156 10.4033 35.0036 12.2789 35 14.1733L34.994 14.1674ZM32.142 14.1674C32.142 11.1507 30.9154 8.25747 28.7321 6.12431C26.5488 3.99114 23.5876 2.79274 20.5 2.79274C17.4123 2.79274 14.4511 3.99114 12.2678 6.12431C10.0845 8.25747 8.85797 11.1507 8.85797 14.1674C8.85797 21.0984 14.9312 24.1665 14.9312 27.7771V30.8188H26.0688V27.7771C26.0688 24.1665 32.142 21.0984 32.142 14.1674ZM27.4948 36.8757C27.4952 37.0589 27.4586 37.2404 27.3871 37.4098C27.3156 37.5792 27.2107 37.7331 27.0782 37.8628C26.9458 37.9925 26.7884 38.0953 26.6152 38.1656C26.442 38.2357 26.2563 38.2719 26.0688 38.2719H14.9312C14.553 38.2719 14.1903 38.1251 13.9228 37.8638C13.6554 37.6025 13.5052 37.2482 13.5052 36.8786C13.5052 36.5091 13.6554 36.1548 13.9228 35.8935C14.1903 35.6322 14.553 35.4854 14.9312 35.4854H26.0688C26.4465 35.4854 26.8087 35.6318 27.0761 35.8924C27.3434 36.1531 27.494 36.5067 27.4948 36.8757ZM25.5735 40.5773C25.6221 40.7146 25.6256 40.8632 25.5836 41.0026C25.5417 41.1419 25.4563 41.2649 25.3393 41.3546C23.9337 42.4211 22.2046 43 20.4249 43C18.6452 43 16.9162 42.4211 15.5106 41.3546C15.3925 41.2661 15.3058 41.1436 15.2627 41.0044C15.2197 40.8652 15.2223 40.7163 15.2704 40.5787C15.3184 40.4411 15.4095 40.3217 15.5306 40.2372C15.6518 40.1528 15.797 40.1076 15.9459 40.108H24.901C25.0496 40.1079 25.1945 40.1531 25.3155 40.2372C25.4366 40.3213 25.5248 40.4402 25.5735 40.5773Z" fill="#EC8A3B"/>
</svg>
