<?xml version="1.0" standalone="no"?>
<!DOCTYPE svg PUBLIC "-//W3C//DTD SVG 20010904//EN"
 "http://www.w3.org/TR/2001/REC-SVG-20010904/DTD/svg10.dtd">
<svg version="1.0" xmlns="http://www.w3.org/2000/svg"
 width="1000.000000pt" height="1000.000000pt" viewBox="0 0 1000.000000 1000.000000"
 preserveAspectRatio="xMidYMid meet">
<metadata>
Created by potrace 1.14, written by Peter Selinger 2001-2017
</metadata>
<g transform="translate(0.000000,1000.000000) scale(0.100000,-0.100000)"
fill="#000000" stroke="none">
<path d="M1907 9990 c-121 -21 -273 -82 -377 -153 -66 -45 -186 -163 -235
-232 -58 -82 -109 -187 -142 -292 l-28 -88 0 -4225 0 -4225 28 -88 c51 -163
118 -277 231 -396 120 -124 251 -204 423 -258 l88 -28 3095 0 3095 0 84 23
c335 92 586 343 679 679 l27 98 0 4195 0 4195 -27 98 c-92 334 -337 581 -673
679 l-80 23 -3070 1 c-1688 1 -3092 -2 -3118 -6z m5662 -1021 c174 -40 319
-195 352 -374 19 -102 -7 -232 -64 -321 -40 -63 -132 -143 -204 -177 -65 -30
-74 -32 -188 -32 -117 0 -122 1 -196 36 -96 46 -177 125 -220 215 l-30 64
-278 0 -278 0 -18 -40 c-23 -52 -121 -144 -182 -172 -40 -18 -66 -22 -153 -23
-96 0 -110 3 -163 28 -74 37 -147 110 -184 184 -25 52 -28 68 -28 158 0 89 3
107 29 162 35 77 113 153 193 191 50 23 71 27 153 27 82 0 103 -4 152 -27 70
-33 147 -103 179 -163 l24 -45 280 0 280 0 24 57 c48 108 173 215 291 247 65
17 167 20 229 5z m-4004 -98 c49 -23 1029 -1002 1044 -1044 8 -19 11 -336 11
-972 l0 -945 41 -21 c60 -30 136 -111 165 -173 91 -199 12 -416 -184 -509 -61
-29 -75 -32 -162 -31 -118 0 -184 27 -263 106 -180 181 -141 475 80 600 l53
30 0 429 0 429 -840 0 -840 0 0 -388 0 -388 56 -24 c82 -34 175 -125 219 -214
89 -182 55 -388 -89 -532 -99 -98 -213 -141 -355 -132 -334 22 -530 375 -376
678 36 71 128 159 203 194 l62 30 0 890 c0 551 4 904 10 926 8 27 122 147 523
548 343 343 522 515 542 521 44 13 56 12 100 -8z m1986 -935 c303 -65 458
-393 317 -671 -34 -65 -132 -159 -204 -195 l-64 -31 0 -337 0 -337 337 -337
338 -338 417 0 417 0 17 35 c30 63 101 132 172 167 62 31 74 33 167 33 87 0
107 -3 157 -27 153 -71 248 -247 219 -404 -29 -152 -122 -262 -263 -306 -174
-54 -368 25 -448 182 l-20 40 -456 0 c-368 0 -461 3 -487 14 -41 18 -823 802
-837 839 -6 18 -10 166 -10 401 l0 373 -64 32 c-90 44 -170 126 -215 220 -35
74 -36 79 -36 197 0 118 1 121 37 195 77 155 242 263 408 268 19 0 65 -6 101
-13z m277 -3467 c34 -11 89 -40 122 -65 276 -203 241 -624 -66 -781 l-74 -38
0 -1032 0 -1033 594 0 594 0 25 43 c39 67 106 127 177 161 58 27 75 31 155 31
80 0 97 -4 157 -32 85 -40 151 -106 191 -191 28 -59 32 -77 31 -152 0 -63 -6
-100 -23 -142 -30 -76 -107 -161 -185 -201 -57 -30 -68 -32 -166 -32 -93 0
-112 3 -161 26 -73 34 -134 90 -171 156 l-30 53 -675 0 c-748 0 -721 -2 -763
65 -20 32 -20 47 -20 1158 l0 1125 -66 31 c-79 37 -170 125 -209 200 -144 286
33 627 350 675 51 7 147 -4 213 -25z m-2150 -43 c33 -18 805 -792 821 -823 15
-30 14 -89 -3 -121 -8 -15 -154 -166 -324 -336 l-309 -308 14 -47 c35 -113 -8
-271 -100 -363 -188 -187 -502 -131 -615 110 -24 50 -27 69 -27 162 0 98 2
109 32 166 40 78 125 155 201 185 73 29 207 32 267 6 l39 -18 253 253 253 253
-312 312 -313 313 -442 0 -443 0 0 -1129 0 -1129 63 -30 c290 -137 351 -523
118 -745 -191 -182 -491 -172 -662 22 -128 144 -155 353 -68 524 34 65 134
163 203 197 l61 31 5 1217 c5 1152 6 1219 23 1245 10 16 32 37 50 47 31 19 55
20 610 20 483 0 582 -2 605 -14z m340 -2360 c18 -19 435 -724 476 -803 48 -96
-15 -203 -121 -203 -75 0 -86 14 -299 376 -300 512 -284 482 -284 536 0 41 5
54 33 84 52 57 148 62 195 10z"/>
<path d="M7445 8705 c-5 -2 -22 -6 -37 -9 -37 -8 -98 -63 -114 -103 -35 -83
-2 -188 73 -235 56 -34 145 -33 200 4 115 76 107 251 -13 319 -29 17 -90 30
-109 24z"/>
<path d="M3087 8132 l-417 -417 0 -338 0 -337 838 2 837 3 3 335 2 334 -417
418 c-230 230 -420 418 -423 418 -3 0 -193 -188 -423 -418z"/>
<path d="M2477 5730 c-16 -5 -43 -20 -61 -34 -100 -76 -85 -250 27 -308 102
-53 218 -11 262 94 59 142 -80 292 -228 248z"/>
<path d="M5385 7656 c-140 -65 -151 -255 -19 -332 38 -22 54 -26 103 -22 105
7 175 81 175 183 0 60 -23 105 -77 148 -30 25 -49 31 -95 34 -35 2 -69 -2 -87
-11z"/>
<path d="M5592 4199 c-122 -61 -136 -232 -26 -316 29 -21 49 -28 98 -31 73 -4
115 15 160 71 55 69 45 190 -21 249 -54 50 -143 61 -211 27z"/>
<path d="M2435 1626 c-61 -37 -88 -93 -83 -171 5 -76 38 -127 102 -156 56 -25
103 -24 163 7 42 20 57 35 77 77 14 28 26 67 26 86 -1 52 -32 114 -75 147 -31
23 -49 29 -104 32 -56 2 -72 -1 -106 -22z"/>
</g>
</svg>
